<svg xmlns="http://www.w3.org/2000/svg" xmlns:xlink="http://www.w3.org/1999/xlink" width="1504" height="700" viewBox="0 0 1504 700"><defs><linearGradient id="a" x1="0.461" y1="0.535" x2="0.844" y2="0.5" gradientUnits="objectBoundingBox"><stop offset="0" stop-color="#ef3e79"/><stop offset="1" stop-color="#f07563"/></linearGradient><linearGradient id="b" x1="0.325" y1="0.814" x2="0.756" y2="0.803" gradientUnits="objectBoundingBox"><stop offset="0" stop-color="#fe588c"/><stop offset="1" stop-color="#ff9981"/></linearGradient><clipPath id="d"><rect width="1504" height="700"/></clipPath></defs><g id="c" clip-path="url(#d)"><rect width="1504" height="700" fill="#fff"/><g transform="translate(3 164)"><path d="M1473.66,762.1c141.237-109.053,291.8-143.483,420.532-160.568,90.267-11.98,197.106-12.107,220.487-11.681,45.266-2.92,86.879-5.407,141.905-7.822s114.742-18.911,193.666-35.254V762.1Z" transform="translate(-949.943 -236.099)" fill="url(#a)"/><path d="M961.261,711.234c281.666-190.937,610.25-85.305,872.034-83.347s628.283-110.645,628.283-110.645v188L961.261,711.234Z" transform="translate(-960.949 -175)" fill="url(#b)"/></g></g></svg>