<svg xmlns="http://www.w3.org/2000/svg" width="36" height="27" viewBox="0 0 36 27">
  <g id="Icon_awesome-chart-line" data-name="Icon awesome-chart-line" transform="translate(0 -4.5)" fill="none">
    <path d="M34.875,27H4.5V5.625A1.125,1.125,0,0,0,3.375,4.5H1.125A1.125,1.125,0,0,0,0,5.625V29.25A2.25,2.25,0,0,0,2.25,31.5H34.875A1.125,1.125,0,0,0,36,30.375v-2.25A1.125,1.125,0,0,0,34.875,27ZM32.625,6.75h-8.3a1.687,1.687,0,0,0-1.193,2.881l2.278,2.278-5.159,5.16L15.091,11.91a2.249,2.249,0,0,0-3.182,0l-4.83,4.83a1.125,1.125,0,0,0,0,1.591l1.59,1.59a1.125,1.125,0,0,0,1.591,0L13.5,16.682l5.159,5.159a2.249,2.249,0,0,0,3.182,0l6.75-6.75,2.278,2.278a1.687,1.687,0,0,0,2.881-1.193v-8.3A1.124,1.124,0,0,0,32.625,6.75Z" stroke="none"/>
    <path d="M 34.875 30.5 C 34.94393157958984 30.5 35 30.44392967224121 35 30.375 L 35 28.125 C 35 28.05607032775879 34.94393157958984 28 34.875 28 L 4.5 28 L 3.5 28 L 3.5 27 L 3.5 5.625 C 3.5 5.556069850921631 3.44392991065979 5.5 3.375 5.5 L 1.125 5.5 C 1.05606997013092 5.5 1 5.556069850921631 1 5.625 L 1 29.25 C 1 29.93925094604492 1.560750007629395 30.5 2.25 30.5 L 34.875 30.5 M 20.24991989135742 21.49964904785156 C 20.58361053466797 21.49964904785156 20.89724922180176 21.36967086791992 21.13335990905762 21.13335990905762 L 27.88335990905762 14.38335990905762 L 28.59046936035156 13.67625999450684 L 29.29758071899414 14.38335990905762 L 31.57571029663086 16.66148948669434 C 31.71157073974609 16.79735946655273 31.87103080749512 16.86624908447266 32.04964065551758 16.86624908447266 C 32.34016036987305 16.86624908447266 32.74929809570313 16.65191078186035 32.74929809570313 16.17539024353027 L 32.74929809570313 7.873869895935059 C 32.74934005737305 7.839799880981445 32.73722076416016 7.810369968414307 32.7132682800293 7.786399841308594 C 32.68914031982422 7.762249946594238 32.65943908691406 7.75 32.625 7.75 L 24.32390975952148 7.75 C 23.90932083129883 7.75 23.74161911010742 8.046799659729004 23.68876075744629 8.174409866333008 C 23.63591003417969 8.302009582519531 23.54463958740234 8.630419731140137 23.83781051635742 8.923589706420898 L 26.11594009399414 11.20172023773193 L 26.82299995422363 11.90878009796143 L 26.11598014831543 12.61588954925537 L 20.95714950561523 17.77541923522949 L 20.25004959106445 18.48262023925781 L 19.54289054870605 17.77547073364258 L 14.38405990600586 12.61664009094238 C 14.14785957336426 12.38043022155762 13.83393001556396 12.25034999847412 13.50008964538574 12.25034999847412 C 13.16639995574951 12.25034999847412 12.85274982452393 12.38033008575439 12.61664009094238 12.61664009094238 L 7.786870002746582 17.44640922546387 C 7.762519836425781 17.47076034545898 7.750179767608643 17.50053024291992 7.750179767608643 17.53487968444824 C 7.750179767608643 17.56924057006836 7.762519836425781 17.5990104675293 7.786880016326904 17.62336921691895 L 9.377340316772461 19.21383094787598 C 9.401689529418945 19.23818016052246 9.431460380554199 19.25053024291992 9.4658203125 19.25053024291992 C 9.500180244445801 19.25053024291992 9.529950141906738 19.23818016052246 9.554229736328125 19.21390914916992 L 12.79281997680664 15.97461032867432 L 13.49991989135742 15.26735019683838 L 14.20711040496826 15.97453022003174 L 19.36594009399414 21.13335990905762 C 19.60214042663574 21.36956977844238 19.91608047485352 21.49964904785156 20.24991989135742 21.49964904785156 M 34.875 31.5 L 2.25 31.5 C 1.007580041885376 31.5 0 30.4924201965332 0 29.25 L 0 5.625 C 0 5.003439903259277 0.5034400224685669 4.5 1.125 4.5 L 3.375 4.5 C 3.996560096740723 4.5 4.5 5.003439903259277 4.5 5.625 L 4.5 27 L 34.875 27 C 35.49655914306641 27 36 27.50344085693359 36 28.125 L 36 30.375 C 36 30.99655914306641 35.49655914306641 31.5 34.875 31.5 Z M 20.24991607666016 22.49965286254883 C 19.67414474487305 22.49965286254883 19.09828567504883 22.2799243927002 18.6588306427002 21.84046936035156 L 13.5 16.681640625 L 10.26140975952148 19.92094039916992 C 10.04168033599854 20.14066505432129 9.753749847412109 20.25052833557129 9.4658203125 20.25052833557129 C 9.177889823913574 20.25052833557129 8.889960289001465 20.14066505432129 8.670229911804199 19.92094039916992 L 7.079770088195801 18.33046913146973 C 6.640309810638428 17.89101028442383 6.640309810638428 17.17874908447266 7.079770088195801 16.73929977416992 L 11.90952968597412 11.90952968597412 C 12.34862995147705 11.47007465362549 12.92431545257568 11.25034713745117 13.50008773803711 11.25034713745117 C 14.07586002349854 11.25034713745117 14.65172004699707 11.47007465362549 15.09117031097412 11.90952968597412 L 20.25 17.068359375 L 25.4088306427002 11.90882968902588 L 23.13069915771484 9.63070011138916 C 22.06757926940918 8.567580223083496 22.82062911987305 6.75 24.32390975952148 6.75 L 32.625 6.75 C 33.24655914306641 6.75 33.75 7.253439903259277 33.74929809570313 7.875 L 33.74929809570313 16.17539024353027 C 33.74929809570313 17.19256210327148 32.91716003417969 17.86625289916992 32.04964065551758 17.86624717712402 C 31.63505363464355 17.86624336242676 31.21237564086914 17.71237564086914 30.86860084533691 17.36860084533691 L 28.59046936035156 15.09047031402588 L 21.84046936035156 21.84046936035156 C 21.40136909484863 22.2799243927002 20.82568740844727 22.49965286254883 20.24991607666016 22.49965286254883 Z" stroke="none" fill="#f63854"/>
  </g>
</svg>
