<svg xmlns="http://www.w3.org/2000/svg" width="31.5" height="31.5" viewBox="0 0 31.5 31.5">
  <path id="Icon_awesome-google-plus-square" data-name="Icon awesome-google-plus-square" d="M28.125,2.25H3.375A3.376,3.376,0,0,0,0,5.625v24.75A3.376,3.376,0,0,0,3.375,33.75h24.75A3.376,3.376,0,0,0,31.5,30.375V5.625A3.376,3.376,0,0,0,28.125,2.25ZM11.531,25.031a7.031,7.031,0,0,1,0-14.062,6.717,6.717,0,0,1,4.711,1.842l-1.905,1.835a3.945,3.945,0,0,0-2.8-1.083,4.445,4.445,0,0,0,0,8.888,3.815,3.815,0,0,0,3.994-3.03h-4V17h6.638a5.714,5.714,0,0,1,.112,1.167A6.481,6.481,0,0,1,11.531,25.031ZM27,19.28H24.961v2.039H22.908V19.28H20.869V17.227h2.039V15.188h2.053v2.039H27Z" transform="translate(0 -2.25)" fill="#f63854"/>
</svg>
