<svg xmlns="http://www.w3.org/2000/svg" width="153" height="26" viewBox="0 0 153 26"><g transform="translate(820.5 38.5)"><path d="M15,3l3.708,7.9L27,12.174l-6,6.145L22.416,27,15,22.9,7.584,27,9,18.319,3,12.174,11.292,10.9Z" transform="translate(-695 -40)" fill="none" stroke="#f63854" stroke-linecap="round" stroke-linejoin="round" stroke-width="1"/><path d="M15,3l3.708,7.9L27,12.174l-6,6.145L22.416,27,15,22.9,7.584,27,9,18.319,3,12.174,11.292,10.9Z" transform="translate(-727 -41)" fill="none" stroke="#f63854" stroke-linecap="round" stroke-linejoin="round" stroke-width="1"/><path d="M15,3l3.708,7.9L27,12.174l-6,6.145L22.416,27,15,22.9,7.584,27,9,18.319,3,12.174,11.292,10.9Z" transform="translate(-759 -41)" fill="none" stroke="#f63854" stroke-linecap="round" stroke-linejoin="round" stroke-width="1"/><path d="M15,3l3.708,7.9L27,12.174l-6,6.145L22.416,27,15,22.9,7.584,27,9,18.319,3,12.174,11.292,10.9Z" transform="translate(-791 -41)" fill="#f63854" stroke="#f63854" stroke-linecap="round" stroke-linejoin="round" stroke-width="1"/><path d="M15,3l3.708,7.9L27,12.174l-6,6.145L22.416,27,15,22.9,7.584,27,9,18.319,3,12.174,11.292,10.9Z" transform="translate(-823 -41)" fill="#f63854" stroke="#f63854" stroke-linecap="round" stroke-linejoin="round" stroke-width="1"/></g></svg>