<svg xmlns="http://www.w3.org/2000/svg" width="45.77" height="25.5" viewBox="0 0 45.77 25.5">
  <g id="responsive" transform="translate(-62 266)">
    <path id="Icon_awesome-mobile-alt" data-name="Icon awesome-mobile-alt" d="M9.579,0H1.69A1.712,1.712,0,0,0,0,1.732V16.738A1.712,1.712,0,0,0,1.69,18.47H9.579a1.712,1.712,0,0,0,1.69-1.732V1.732A1.712,1.712,0,0,0,9.579,0ZM5.635,17.316a1.155,1.155,0,1,1,1.127-1.154A1.14,1.14,0,0,1,5.635,17.316Zm3.944-3.9a.429.429,0,0,1-.423.433H2.113a.429.429,0,0,1-.423-.433V2.164a.429.429,0,0,1,.423-.433H9.157a.429.429,0,0,1,.423.433Z" transform="translate(96 -259.47)" fill="none" stroke="#f63854" stroke-width="1"/>
    <path id="Icon_ionic-ios-laptop" data-name="Icon ionic-ios-laptop" d="M31.5,25.84V9.077a1.217,1.217,0,0,0-1.209-1.2H5.709A1.212,1.212,0,0,0,4.5,9.077V25.84H1.118a2.042,2.042,0,0,0,1.329,1.6,9.329,9.329,0,0,0,3.459.689H30.094a9.313,9.313,0,0,0,3.4-.619,2.121,2.121,0,0,0,1.392-1.666H31.5ZM18,8.438a.281.281,0,1,1-.281.281A.282.282,0,0,1,18,8.438ZM5.766,9.577H30.234a.141.141,0,0,1,.141.141V24.574a.141.141,0,0,1-.141.141H5.766a.141.141,0,0,1-.141-.141V9.717A.137.137,0,0,1,5.766,9.577ZM20.974,26.4H15.026a.838.838,0,0,1-.682-.527h7.313A.7.7,0,0,1,20.974,26.4Z" transform="translate(60.882 -273.875)" fill="#f63854"/>
  </g>
</svg>
